solid wapolbot
facet normal 5.149823581257202e-06 -0.000773864303171421 -0.9999997005537149
  outer loop
    vertex 96.5000004902909 -108.71035434593284 8.308275721267991
    vertex 77.0747113779012 -109.80200719668619 8.308163942778178
    vertex 77.0747113779012 -108.71154141310902 8.308163942778178
  endloop
endfacet
facet normal 5.149823581257202e-06 -0.000773864303171421 -0.9999997005537149
  outer loop
    vertex 77.0747113779012 -109.80200719668619 8.308163942778178
    vertex 96.5000004902909 -108.71035434593284 8.308275721267991
    vertex 98.10726953112078 -109.80267229734827 8.30840271417567
  endloop
endfacet
facet normal 5.149823581257202e-06 -0.000773864303171421 -0.9999997005537149
  outer loop
    vertex 98.10726953112078 -109.80267229734827 8.30840271417567
    vertex 96.5000004902909 -108.71035434593284 8.308275721267991
    vertex 96.50000050702465 -88.02956529986147 8.292170827422753
  endloop
endfacet
facet normal 5.149823581257202e-06 -0.000773864303171421 -0.9999997005537149
  outer loop
    vertex 98.10726953112078 -109.80267229734827 8.30840271417567
    vertex 96.50000050702465 -88.02956529986147 8.292170827422753
    vertex 98.10726950208874 -88.02956578959565 8.29152193091365
  endloop
endfacet
facet normal 3.250919813857625e-07 0.9999999999999472 -3.734750036609318e-10
  outer loop
    vertex 96.50000050702465 -88.02956529986147 8.292170827422753
    vertex 98.10726949798145 -88.02956578510181 14.291521930913644
    vertex 98.10726950208874 -88.02956578959565 8.29152193091365
  endloop
endfacet
facet normal 3.250919813857625e-07 0.9999999999999472 -3.734750036609318e-10
  outer loop
    vertex 98.10726949798145 -88.02956578510181 14.291521930913644
    vertex 96.50000050702465 -88.02956529986147 8.292170827422753
    vertex 96.50000050702465 -88.02956529986147 12.808402714140184
  endloop
endfacet
facet normal 3.250919813857625e-07 0.9999999999999472 -3.734750036609318e-10
  outer loop
    vertex 98.10726949798145 -88.02956578510181 14.291521930913644
    vertex 96.50000050702465 -88.02956529986147 12.808402714140184
    vertex 96.50000050702465 -88.02956529986147 14.308402714140186
  endloop
endfacet
facet normal 4.695077325712905e-05 0.0003615468294338503 0.9999999335397554
  outer loop
    vertex 98.10726953112078 -109.80267229734827 14.308402714175665
    vertex 77.0747113779012 -108.71154141310902 14.308402714140186
    vertex 77.0747113779012 -109.80200719668619 14.308163942778178
  endloop
endfacet
facet normal 4.695077325712905e-05 0.0003615468294338503 0.9999999335397554
  outer loop
    vertex 77.0747113779012 -108.71154141310902 14.308402714140186
    vertex 98.10726953112078 -109.80267229734827 14.308402714175665
    vertex 96.50000050702465 -88.02956529986147 14.308402714140186
  endloop
endfacet
facet normal 4.695077325712905e-05 0.0003615468294338503 0.9999999335397554
  outer loop
    vertex 96.50000050702465 -88.02956529986147 14.308402714140186
    vertex 98.10726953112078 -109.80267229734827 14.308402714175665
    vertex 98.10726949798145 -88.02956578510181 14.291521930913644
  endloop
endfacet
facet normal -1.0 8.091446003030349e-10 -7.34000307308472e-26
  outer loop
    vertex 96.50000050702465 -88.02956529986147 12.808402714140184
    vertex 96.5000004902909 -108.71035434593284 8.308275721267991
    vertex 96.5000004902909 -108.71035434593284 12.808402714140184
  endloop
endfacet
facet normal -1.0 8.091446003030349e-10 -7.34000307308472e-26
  outer loop
    vertex 96.5000004902909 -108.71035434593284 8.308275721267991
    vertex 96.50000050702465 -88.02956529986147 12.808402714140184
    vertex 96.50000050702465 -88.02956529986147 8.292170827422753
  endloop
endfacet
facet normal -0.7289049451006054 0.6846149143919401 -1.1592811790381177e-29
  outer loop
    vertex 96.50000050702465 -88.02956529986147 14.308402714140186
    vertex 77.0747113779012 -108.71154141310902 12.808402714140184
    vertex 77.0747113779012 -108.71154141310902 14.308402714140186
  endloop
endfacet
facet normal -0.7289049451006054 0.6846149143919401 -1.1592811790381177e-29
  outer loop
    vertex 77.0747113779012 -108.71154141310902 12.808402714140184
    vertex 96.50000050702465 -88.02956529986147 14.308402714140186
    vertex 96.50000050702465 -88.02956529986147 12.808402714140184
  endloop
endfacet
facet normal -3.178454599716314e-05 -0.9999999994948714 1.125934109933759e-21
  outer loop
    vertex 98.10726953112078 -109.80267229734827 8.30840271417567
    vertex 77.0747113779012 -109.80200719668619 14.308163942778178
    vertex 77.0747113779012 -109.80200719668619 8.308163942778178
  endloop
endfacet
facet normal -3.178454599716314e-05 -0.9999999994948714 1.125934109933759e-21
  outer loop
    vertex 77.0747113779012 -109.80200719668619 14.308163942778178
    vertex 98.10726953112078 -109.80267229734827 8.30840271417567
    vertex 98.10726953112078 -109.80267229734827 14.308402714175665
  endloop
endfacet
facet normal -1.0 0.0 0.0
  outer loop
    vertex 77.0747113779012 -108.71154141310902 14.308402714140186
    vertex 77.0747113779012 -109.80200719668619 8.308163942778178
    vertex 77.0747113779012 -109.80200719668619 14.308163942778178
  endloop
endfacet
facet normal -1.0 0.0 0.0
  outer loop
    vertex 77.0747113779012 -109.80200719668619 8.308163942778178
    vertex 77.0747113779012 -108.71154141310902 14.308402714140186
    vertex 77.0747113779012 -108.71154141310902 8.308163942778178
  endloop
endfacet
facet normal -1.0 0.0 0.0
  outer loop
    vertex 77.0747113779012 -108.71154141310902 8.308163942778178
    vertex 77.0747113779012 -108.71154141310902 14.308402714140186
    vertex 77.0747113779012 -108.71154141310902 12.808402714140184
  endloop
endfacet
facet normal 0.0 0.0 -1.0
  outer loop
    vertex 96.50000050702465 -88.02956529986147 12.808402714140184
    vertex 96.5000004902909 -108.71035434593284 12.808402714140184
    vertex 77.0747113779012 -108.71154141310902 12.808402714140184
  endloop
endfacet
facet normal -5.149823582780686e-06 -0.000773864303171297 -0.9999997005537149
  outer loop
    vertex -5.311202365909651e-07 -109.80267229750224 8.308402714140238
    vertex 1.499999509709294 -108.71035434593291 8.30827572126799
    vertex 20.925288622099 -109.80200719668638 8.30816394277817
  endloop
endfacet
facet normal -5.149823582780686e-06 -0.000773864303171297 -0.9999997005537149
  outer loop
    vertex 1.499999509709294 -108.71035434593291 8.30827572126799
    vertex -5.311202365909651e-07 -109.80267229750224 8.308402714140238
    vertex -5.020882078987654e-07 -88.02956578974995 8.291521930878135
  endloop
endfacet
facet normal -5.149823582780686e-06 -0.000773864303171297 -0.9999997005537149
  outer loop
    vertex 1.499999509709294 -108.71035434593291 8.30827572126799
    vertex -5.020882078987654e-07 -88.02956578974995 8.291521930878135
    vertex 1.4999994929757483 -88.02956529986159 8.29217082742284
  endloop
endfacet
facet normal -5.149823582780686e-06 -0.000773864303171297 -0.9999997005537149
  outer loop
    vertex 20.925288622099 -109.80200719668638 8.30816394277817
    vertex 1.499999509709294 -108.71035434593291 8.30827572126799
    vertex 20.925288622099 -108.71154141310932 8.30816394277817
  endloop
endfacet
facet normal -1.0 1.434881500381106e-09 3.307981488363788e-10
  outer loop
    vertex -4.979812538330463e-07 -88.02956578525605 14.291521930878213
    vertex -5.311202365909651e-07 -109.80267229750224 12.675440714140143
    vertex -5.311202365909651e-07 -109.80267229750224 14.308402714140135
  endloop
endfacet
facet normal -1.0 1.434881500381106e-09 3.307981488363788e-10
  outer loop
    vertex -5.311202365909651e-07 -109.80267229750224 12.675440714140143
    vertex -4.979812538330463e-07 -88.02956578525605 14.291521930878213
    vertex -5.311202365909651e-07 -109.80267229750224 8.308402714140238
  endloop
endfacet
facet normal -1.0 1.434881500381106e-09 3.307981488363788e-10
  outer loop
    vertex -5.311202365909651e-07 -109.80267229750224 8.308402714140238
    vertex -4.979812538330463e-07 -88.02956578525605 14.291521930878213
    vertex -5.020882078987654e-07 -88.02956578974995 8.291521930878135
  endloop
endfacet
facet normal -4.695077325958788e-05 0.0003615468294320316 0.9999999335397554
  outer loop
    vertex 20.925288622099 -109.80200719668638 14.308163942778249
    vertex -4.979812538330463e-07 -88.02956578525605 14.291521930878213
    vertex -5.311202365909651e-07 -109.80267229750224 14.308402714140135
  endloop
endfacet
facet normal -4.695077325958788e-05 0.0003615468294320316 0.9999999335397554
  outer loop
    vertex -4.979812538330463e-07 -88.02956578525605 14.291521930878213
    vertex 20.925288622099 -109.80200719668638 14.308163942778249
    vertex 1.4999994929757483 -88.02956529986159 14.308402714140135
  endloop
endfacet
facet normal -4.695077325958788e-05 0.0003615468294320316 0.9999999335397554
  outer loop
    vertex 1.4999994929757483 -88.02956529986159 14.308402714140135
    vertex 20.925288622099 -109.80200719668638 14.308163942778249
    vertex 20.925288622099 -108.71154141310932 14.308402714140135
  endloop
endfacet
facet normal -3.249720647583687e-07 0.9999999999999472 -3.5842409339292045e-10
  outer loop
    vertex -4.979812538330463e-07 -88.02956578525605 14.291521930878213
    vertex 1.4999994929757483 -88.02956529986159 8.29217082742284
    vertex -5.020882078987654e-07 -88.02956578974995 8.291521930878135
  endloop
endfacet
facet normal -3.249720647583687e-07 0.9999999999999472 -3.5842409339292045e-10
  outer loop
    vertex 1.4999994929757483 -88.02956529986159 8.29217082742284
    vertex -4.979812538330463e-07 -88.02956578525605 14.291521930878213
    vertex 1.4999994929757483 -88.02956529986159 12.808402714140115
  endloop
endfacet
facet normal -3.249720647583687e-07 0.9999999999999472 -3.5842409339292045e-10
  outer loop
    vertex 1.4999994929757483 -88.02956529986159 12.808402714140115
    vertex -4.979812538330463e-07 -88.02956578525605 14.291521930878213
    vertex 1.4999994929757483 -88.02956529986159 14.308402714140135
  endloop
endfacet
facet normal -6.11093697030693e-05 0.9999999981328225 -9.836251742825547e-22
  outer loop
    vertex 77.0747113779012 -108.71154141310902 12.808402714140184
    vertex 96.5000004902909 -108.71035434593284 8.308275721267991
    vertex 77.0747113779012 -108.71154141310902 8.308163942778178
  endloop
endfacet
facet normal -6.11093697030693e-05 0.9999999981328225 -9.836251742825547e-22
  outer loop
    vertex 96.5000004902909 -108.71035434593284 8.308275721267991
    vertex 77.0747113779012 -108.71154141310902 12.808402714140184
    vertex 96.5000004902909 -108.71035434593284 12.808402714140184
  endloop
endfacet
facet normal 0.7289049451006121 0.6846149143919331 0.0
  outer loop
    vertex 1.4999994929757483 -88.02956529986159 12.808402714140115
    vertex 20.925288622099 -108.71154141310932 14.308402714140135
    vertex 20.925288622099 -108.71154141310932 12.808402714140115
  endloop
endfacet
facet normal 0.7289049451006121 0.6846149143919331 0.0
  outer loop
    vertex 20.925288622099 -108.71154141310932 14.308402714140135
    vertex 1.4999994929757483 -88.02956529986159 12.808402714140115
    vertex 1.4999994929757483 -88.02956529986159 14.308402714140135
  endloop
endfacet
facet normal 0.0 0.0 -1.0
  outer loop
    vertex 20.925288622099 -108.71154141310932 12.808402714140115
    vertex 1.499999509709294 -108.71035434593291 12.808402714140115
    vertex 1.4999994929757483 -88.02956529986159 12.808402714140115
  endloop
endfacet
facet normal 1.0 8.091347826125079e-10 3.1428282156911555e-26
  outer loop
    vertex 1.4999994929757483 -88.02956529986159 8.29217082742284
    vertex 1.499999509709294 -108.71035434593291 12.808402714140115
    vertex 1.499999509709294 -108.71035434593291 8.30827572126799
  endloop
endfacet
facet normal 1.0 8.091347826125079e-10 3.1428282156911555e-26
  outer loop
    vertex 1.499999509709294 -108.71035434593291 12.808402714140115
    vertex 1.4999994929757483 -88.02956529986159 8.29217082742284
    vertex 1.4999994929757483 -88.02956529986159 12.808402714140115
  endloop
endfacet
facet normal 1.0 -9.084566085251407e-09 -7.120531082561594e-10
  outer loop
    vertex 64.15000028037755 -108.71112736459921 8.307406423720733
    vertex 64.15000028183248 -109.80225792105487 12.675290381941142
    vertex 64.15000028183248 -109.80225792105487 8.308252381941143
  endloop
endfacet
facet normal 1.0 -9.084566085251407e-09 -7.120531082561594e-10
  outer loop
    vertex 64.15000028183248 -109.80225792105487 12.675290381941142
    vertex 64.15000028037755 -108.71112736459921 8.307406423720733
    vertex 64.15000028183248 -109.80225792105487 14.308252381941152
  endloop
endfacet
facet normal 1.0 -9.084566085251407e-09 -7.120531082561594e-10
  outer loop
    vertex 64.15000028183248 -109.80225792105487 14.308252381941152
    vertex 64.15000028037755 -108.71112736459921 8.307406423720733
    vertex 64.15000028022315 -108.71112736459921 12.807829402958163
  endloop
endfacet
facet normal 1.0 -9.084566085251407e-09 -7.120531082561594e-10
  outer loop
    vertex 64.15000028183248 -109.80225792105487 14.308252381941152
    vertex 64.15000028022315 -108.71112736459921 12.807829402958163
    vertex 64.15000032718498 -104.71112736459922 14.307829184333226
  endloop
endfacet
facet normal 1.0 -9.084566085251407e-09 -7.120531082561594e-10
  outer loop
    vertex 64.15000032718498 -104.71112736459922 14.307829184333226
    vertex 64.15000028022315 -108.71112736459921 12.807829402958163
    vertex 64.15000032723641 -104.71112736459922 12.807829184333222
  endloop
endfacet
facet normal 1.0 0.0 0.0
  outer loop
    vertex 20.925288622099 -108.71154141310932 8.30816394277817
    vertex 20.925288622099 -109.80200719668638 14.308163942778249
    vertex 20.925288622099 -109.80200719668638 8.30816394277817
  endloop
endfacet
facet normal 1.0 0.0 0.0
  outer loop
    vertex 20.925288622099 -109.80200719668638 14.308163942778249
    vertex 20.925288622099 -108.71154141310932 8.30816394277817
    vertex 20.925288622099 -108.71154141310932 14.308402714140135
  endloop
endfacet
facet normal 1.0 0.0 0.0
  outer loop
    vertex 20.925288622099 -108.71154141310932 14.308402714140135
    vertex 20.925288622099 -108.71154141310932 8.30816394277817
    vertex 20.925288622099 -108.71154141310932 12.808402714140115
  endloop
endfacet
facet normal 4.401843388340768e-06 1.8139402723490868e-05 0.9999999998257929
  outer loop
    vertex 64.15000028183248 -109.80225792105487 14.308252381941152
    vertex 33.84999977127186 -104.71112695149658 14.308252169991498
    vertex 33.849999724258595 -109.80159273507375 14.308013617254428
  endloop
endfacet
facet normal 4.401843388340768e-06 1.8139402723490868e-05 0.9999999998257929
  outer loop
    vertex 33.84999977127186 -104.71112695149658 14.308252169991498
    vertex 64.15000028183248 -109.80225792105487 14.308252381941152
    vertex 64.15000032718498 -104.71112736459922 14.307829184333226
  endloop
endfacet
facet normal 3.178454599392935e-05 -0.9999999994948714 -2.2518682198676077e-21
  outer loop
    vertex 20.925288622099 -109.80200719668638 14.308163942778249
    vertex -5.311202365909651e-07 -109.80267229750224 8.308402714140238
    vertex 20.925288622099 -109.80200719668638 8.30816394277817
  endloop
endfacet
facet normal 3.178454599392935e-05 -0.9999999994948714 -2.2518682198676077e-21
  outer loop
    vertex -5.311202365909651e-07 -109.80267229750224 8.308402714140238
    vertex 20.925288622099 -109.80200719668638 14.308163942778249
    vertex -5.311202365909651e-07 -109.80267229750224 12.675440714140143
  endloop
endfacet
facet normal 3.178454599392935e-05 -0.9999999994948714 -2.2518682198676077e-21
  outer loop
    vertex -5.311202365909651e-07 -109.80267229750224 12.675440714140143
    vertex 20.925288622099 -109.80200719668638 14.308163942778249
    vertex -5.311202365909651e-07 -109.80267229750224 14.308402714140135
  endloop
endfacet
facet normal 6.110936971468287e-05 0.9999999981328225 8.138001458931237e-21
  outer loop
    vertex 1.499999509709294 -108.71035434593291 8.30827572126799
    vertex 20.925288622099 -108.71154141310932 12.808402714140115
    vertex 20.925288622099 -108.71154141310932 8.30816394277817
  endloop
endfacet
facet normal 6.110936971468287e-05 0.9999999981328225 8.138001458931237e-21
  outer loop
    vertex 20.925288622099 -108.71154141310932 12.808402714140115
    vertex 1.499999509709294 -108.71035434593291 8.30827572126799
    vertex 1.499999509709294 -108.71035434593291 12.808402714140115
  endloop
endfacet
facet normal -3.178454599716306e-05 -0.9999999994948714 5.629670549668773e-21
  outer loop
    vertex 64.15000028183248 -109.80225792105487 8.308252381941143
    vertex 33.849999724258595 -109.80159273507375 14.308013617254428
    vertex 33.849999724258595 -109.80159273507375 8.308013617254428
  endloop
endfacet
facet normal -3.178454599716306e-05 -0.9999999994948714 5.629670549668773e-21
  outer loop
    vertex 33.849999724258595 -109.80159273507375 14.308013617254428
    vertex 64.15000028183248 -109.80225792105487 8.308252381941143
    vertex 64.15000028183248 -109.80225792105487 12.675290381941142
  endloop
endfacet
facet normal -3.178454599716306e-05 -0.9999999994948714 5.629670549668773e-21
  outer loop
    vertex 33.849999724258595 -109.80159273507375 14.308013617254428
    vertex 64.15000028183248 -109.80225792105487 12.675290381941142
    vertex 64.15000028183248 -109.80225792105487 14.308252381941152
  endloop
endfacet
facet normal -8.809282825830946e-06 -0.0003878883741192376 -0.9999999247325001
  outer loop
    vertex 64.15000028037755 -108.71112736459921 8.307406423720733
    vertex 33.849999724258595 -109.80159273507375 8.308013617254428
    vertex 33.849999724258595 -108.71112695149657 8.308013617254428
  endloop
endfacet
facet normal -8.809282825830946e-06 -0.0003878883741192376 -0.9999999247325001
  outer loop
    vertex 33.849999724258595 -109.80159273507375 8.308013617254428
    vertex 64.15000028037755 -108.71112736459921 8.307406423720733
    vertex 64.15000028183248 -109.80225792105487 8.308252381941143
  endloop
endfacet
facet normal -1.0 9.663234286222986e-09 4.801223176971058e-10
  outer loop
    vertex 33.849999724258595 -109.80159273507375 14.308013617254428
    vertex 33.849999724258595 -108.71112711546527 12.807829409633444
    vertex 33.849999724258595 -109.80159273507375 8.308013617254428
  endloop
endfacet
facet normal -1.0 9.663234286222986e-09 4.801223176971058e-10
  outer loop
    vertex 33.849999724258595 -108.71112711546527 12.807829409633444
    vertex 33.849999724258595 -109.80159273507375 14.308013617254428
    vertex 33.84999977127186 -104.71112695149658 14.308252169991498
  endloop
endfacet
facet normal -1.0 9.663234286222986e-09 4.801223176971058e-10
  outer loop
    vertex 33.849999724258595 -108.71112711546527 12.807829409633444
    vertex 33.84999977127186 -104.71112695149658 14.308252169991498
    vertex 33.84999977127186 -104.71112711546529 12.807829191008503
  endloop
endfacet
facet normal -1.0 9.663234286222986e-09 4.801223176971058e-10
  outer loop
    vertex 33.849999724258595 -108.71112695149657 8.308013617254428
    vertex 33.849999724258595 -109.80159273507375 8.308013617254428
    vertex 33.849999724258595 -108.71112711546527 12.807829409633444
  endloop
endfacet
facet normal 1.0 1.4348898629119169e-09 3.3082540523161376e-10
  outer loop
    vertex 98.10726950208874 -88.02956578959565 8.29152193091365
    vertex 98.10726953112078 -109.80267229734827 14.308402714175665
    vertex 98.10726953112078 -109.80267229734827 8.30840271417567
  endloop
endfacet
facet normal 1.0 1.4348898629119169e-09 3.3082540523161376e-10
  outer loop
    vertex 98.10726953112078 -109.80267229734827 14.308402714175665
    vertex 98.10726950208874 -88.02956578959565 8.29152193091365
    vertex 98.10726949798145 -88.02956578510181 14.291521930913644
  endloop
endfacet
facet normal -4.2828147041709744e-16 -5.4656235048966566e-08 -0.9999999999999987
  outer loop
    vertex 33.84999977127186 -104.71112711546529 12.807829191008503
    vertex 64.15000028022315 -108.71112736459921 12.807829402958163
    vertex 33.849999724258595 -108.71112711546527 12.807829409633444
  endloop
endfacet
facet normal -4.2828147041709744e-16 -5.4656235048966566e-08 -0.9999999999999987
  outer loop
    vertex 64.15000028022315 -108.71112736459921 12.807829402958163
    vertex 33.84999977127186 -104.71112711546529 12.807829191008503
    vertex 64.15000032723641 -104.71112736459922 12.807829184333222
  endloop
endfacet
facet normal 1.1753315700393069e-08 0.9999999999999984 -5.465623475632991e-08
  outer loop
    vertex 33.84999977127186 -104.71112711546529 12.807829191008503
    vertex 64.15000032718498 -104.71112736459922 14.307829184333226
    vertex 64.15000032723641 -104.71112736459922 12.807829184333222
  endloop
endfacet
facet normal 1.1753315700393069e-08 0.9999999999999984 -5.465623475632991e-08
  outer loop
    vertex 64.15000032718498 -104.71112736459922 14.307829184333226
    vertex 33.84999977127186 -104.71112711546529 12.807829191008503
    vertex 33.84999977127186 -104.71112695149658 14.308252169991498
  endloop
endfacet
facet normal 1.1754132405478132e-08 0.9999999999999998 1.8217033160279297e-08
  outer loop
    vertex 33.849999724258595 -108.71112695149657 8.308013617254428
    vertex 64.15000028022315 -108.71112736459921 12.807829402958163
    vertex 64.15000028037755 -108.71112736459921 8.307406423720733
  endloop
endfacet
facet normal 1.1754132405478132e-08 0.9999999999999998 1.8217033160279297e-08
  outer loop
    vertex 64.15000028022315 -108.71112736459921 12.807829402958163
    vertex 33.849999724258595 -108.71112695149657 8.308013617254428
    vertex 33.849999724258595 -108.71112711546527 12.807829409633444
  endloop
endfacet
endsolid wapolbot
