solid wapolbot
facet normal -0.6613118653236438 -0.7501110696304666 4.7208362428845715e-14
  outer loop
    vertex 153.51770068285902 35.62657556714154 7.5517565215605424
    vertex 149.65462867426155 39.03233167355868 4.8058353008095755
    vertex 153.51770068285848 35.62657556714191 4.805835300808253
  endloop
endfacet
facet normal -0.6613118653236438 -0.7501110696304666 4.7208362428845715e-14
  outer loop
    vertex 149.65462867426155 39.03233167355868 4.8058353008095755
    vertex 153.51770068285902 35.62657556714154 7.5517565215605424
    vertex 149.65462867426209 39.03233167355831 7.551756521561863
  endloop
endfacet
facet normal 0.6613118653236595 0.7501110696304528 -4.720836242885107e-14
  outer loop
    vertex 144.9593144304632 33.70654307918283 4.805835300809914
    vertex 148.82238643906118 30.300786972765064 7.551756521560876
    vertex 148.82238643906064 30.300786972765437 4.805835300808589
  endloop
endfacet
facet normal 0.6613118653236595 0.7501110696304528 -4.720836242885107e-14
  outer loop
    vertex 148.82238643906118 30.300786972765064 7.551756521560876
    vertex 144.9593144304632 33.70654307918283 4.805835300809914
    vertex 144.95931443046373 33.70654307918245 7.551756521562202
  endloop
endfacet
facet normal -0.7501110696304798 0.6613118653236291 2.570129063436938e-13
  outer loop
    vertex 150.05141579345627 39.4823983153366 7.551756521561841
    vertex 149.65462867426155 39.03233167355868 4.8058353008095755
    vertex 149.65462867426209 39.03233167355831 7.551756521561863
  endloop
endfacet
facet normal -0.7501110696304798 0.6613118653236291 2.570129063436938e-13
  outer loop
    vertex 149.65462867426155 39.03233167355868 4.8058353008095755
    vertex 150.05141579345627 39.4823983153366 7.551756521561841
    vertex 150.05141579345573 39.48239831533697 4.805835300809553
  endloop
endfacet
facet normal -0.7501110696304757 0.6613118653236337 2.570129063436935e-13
  outer loop
    vertex 144.95931443046373 33.70654307918245 7.551756521562202
    vertex 144.562527311269 33.256476437404544 4.805835300809942
    vertex 144.56252731126955 33.25647643740417 7.551756521562232
  endloop
endfacet
facet normal -0.7501110696304757 0.6613118653236337 2.570129063436935e-13
  outer loop
    vertex 144.562527311269 33.256476437404544 4.805835300809942
    vertex 144.95931443046373 33.70654307918245 7.551756521562202
    vertex 144.9593144304632 33.70654307918283 4.805835300809914
  endloop
endfacet
facet normal -0.7501110696304798 0.6613118653236288 2.5701290634369375e-13
  outer loop
    vertex 153.51770068285902 35.62657556714154 7.5517565215605424
    vertex 148.82238643906064 30.300786972765437 4.805835300808589
    vertex 148.82238643906118 30.300786972765064 7.551756521560876
  endloop
endfacet
facet normal -0.7501110696304798 0.6613118653236288 2.5701290634369375e-13
  outer loop
    vertex 148.82238643906064 30.300786972765437 4.805835300808589
    vertex 153.51770068285902 35.62657556714154 7.5517565215605424
    vertex 153.51770068285848 35.62657556714191 4.805835300808253
  endloop
endfacet
facet normal -0.6613118653236466 -0.7501110696304643 4.7208362428846655e-14
  outer loop
    vertex 148.8756659616454 29.4539332117926 7.551756521560751
    vertex 144.562527311269 33.256476437404544 4.805835300809942
    vertex 148.87566596164487 29.45393321179297 4.805835300808462
  endloop
endfacet
facet normal -0.6613118653236466 -0.7501110696304643 4.7208362428846655e-14
  outer loop
    vertex 144.562527311269 33.256476437404544 4.805835300809942
    vertex 148.8756659616454 29.4539332117926 7.551756521560751
    vertex 144.56252731126955 33.25647643740417 7.551756521562232
  endloop
endfacet
facet normal -1.0 1.1424903289553841e-28 -8.382273722114502e-16
  outer loop
    vertex 181.62084692188532 40.45018726712414 7.55175652156079
    vertex 181.62084692188532 39.85018726712454 4.812151462716831
    vertex 181.62084692188532 39.850187267124134 7.5517565215607085
  endloop
endfacet
facet normal -1.0 1.1424903289553841e-28 -8.382273722114502e-16
  outer loop
    vertex 181.62084692188532 39.85018726712454 4.812151462716831
    vertex 181.62084692188532 40.45018726712414 7.55175652156079
    vertex 181.62084692188532 40.45018726712455 4.812151462716913
  endloop
endfacet
facet normal -7.846863255785145e-15 1.0 1.3506395279760096e-13
  outer loop
    vertex 181.62084692188532 40.45018726712414 7.55175652156079
    vertex 187.37084692188554 40.45018726712459 4.812151462716913
    vertex 181.62084692188532 40.45018726712455 4.812151462716913
  endloop
endfacet
facet normal -7.846863255785145e-15 1.0 1.3506395279760096e-13
  outer loop
    vertex 187.37084692188554 40.45018726712459 4.812151462716913
    vertex 181.62084692188532 40.45018726712414 7.55175652156079
    vertex 187.37084692188554 40.450187267124186 7.55175652156079
  endloop
endfacet
facet normal -4.3805304583266305e-15 1.0 1.3506395279760096e-13
  outer loop
    vertex 181.62084692188532 32.7501872671241 7.551756521559748
    vertex 186.77084692188578 32.75018726712453 4.812151462715878
    vertex 181.62084692188532 32.7501872671245 4.812151462715872
  endloop
endfacet
facet normal -4.3805304583266305e-15 1.0 1.3506395279760096e-13
  outer loop
    vertex 186.77084692188578 32.75018726712453 4.812151462715878
    vertex 181.62084692188532 32.7501872671241 7.551756521559748
    vertex 186.77084692188578 32.75018726712412 7.5517565215597555
  endloop
endfacet
facet normal -1.0 -2.5419416180713132e-14 -8.382273722148834e-16
  outer loop
    vertex 186.77084692188558 39.85018726712418 7.551756521560712
    vertex 186.77084692188578 32.75018726712453 4.812151462715878
    vertex 186.77084692188578 32.75018726712412 7.5517565215597555
  endloop
endfacet
facet normal -1.0 -2.5419416180713132e-14 -8.382273722148834e-16
  outer loop
    vertex 186.77084692188578 32.75018726712453 4.812151462715878
    vertex 186.77084692188558 39.85018726712418 7.551756521560712
    vertex 186.77084692188558 39.85018726712458 4.812151462716834
  endloop
endfacet
facet normal -1.0 1.1818865471953806e-28 -8.382273722114501e-16
  outer loop
    vertex 181.62084692188532 32.7501872671241 7.551756521559748
    vertex 181.62084692188532 32.15018726712457 4.8121514627157875
    vertex 181.62084692188532 32.15018726712417 7.551756521559664
  endloop
endfacet
facet normal -1.0 1.1818865471953806e-28 -8.382273722114501e-16
  outer loop
    vertex 181.62084692188532 32.15018726712457 4.8121514627157875
    vertex 181.62084692188532 32.7501872671241 7.551756521559748
    vertex 181.62084692188532 32.7501872671245 4.812151462715872
  endloop
endfacet
facet normal 8.761060916653272e-15 -1.0 -1.3506395279760096e-13
  outer loop
    vertex 186.77084692188558 39.85018726712458 4.812151462716834
    vertex 181.62084692188532 39.850187267124134 7.5517565215607085
    vertex 181.62084692188532 39.85018726712454 4.812151462716831
  endloop
endfacet
facet normal 8.761060916653272e-15 -1.0 -1.3506395279760096e-13
  outer loop
    vertex 181.62084692188532 39.850187267124134 7.5517565215607085
    vertex 186.77084692188558 39.85018726712458 4.812151462716834
    vertex 186.77084692188558 39.85018726712418 7.551756521560712
  endloop
endfacet
facet normal -0.6613118653236612 0.7501110696304514 -4.7390402364612196e-14
  outer loop
    vertex 194.01930740471076 30.300786972766225 7.551756521560872
    vertex 197.777991592462 33.61451283550938 4.827598419910752
    vertex 194.01930740471116 30.300786972766616 4.827598419909466
  endloop
endfacet
facet normal -0.6613118653236612 0.7501110696304514 -4.7390402364612196e-14
  outer loop
    vertex 197.777991592462 33.61451283550938 4.827598419910752
    vertex 194.01930740471076 30.300786972766225 7.551756521560872
    vertex 197.7779915924616 33.61451283550899 7.55175652156216
  endloop
endfacet
facet normal 0.6613118653236636 -0.7501110696304494 4.739040236461299e-14
  outer loop
    vertex 193.17647334239444 39.02299372184723 4.827598419910447
    vertex 189.32399316091278 35.62657556714213 7.551756521560534
    vertex 189.32399316091318 35.626575567142524 4.827598419909128
  endloop
endfacet
facet normal 0.6613118653236636 -0.7501110696304494 4.739040236461299e-14
  outer loop
    vertex 189.32399316091278 35.62657556714213 7.551756521560534
    vertex 193.17647334239444 39.02299372184723 4.827598419910447
    vertex 193.17647334239405 39.02299372184684 7.551756521561855
  endloop
endfacet
facet normal 0.7616397613146387 0.648000674370467 2.5796786282032704e-13
  outer loop
    vertex 198.16685228965085 33.157458112720285 4.827598419910777
    vertex 197.7779915924616 33.61451283550899 7.55175652156216
    vertex 198.16685228965042 33.157458112719894 7.551756521562185
  endloop
endfacet
facet normal 0.7616397613146387 0.648000674370467 2.5796786282032704e-13
  outer loop
    vertex 197.7779915924616 33.61451283550899 7.55175652156216
    vertex 198.16685228965085 33.157458112720285 4.827598419910777
    vertex 197.777991592462 33.61451283550938 4.827598419910752
  endloop
endfacet
facet normal 0.7501110696304336 0.6613118653236811 2.5717324295720293e-13
  outer loop
    vertex 194.01930740471116 30.300786972766616 4.827598419909466
    vertex 189.32399316091278 35.62657556714213 7.551756521560534
    vertex 194.01930740471076 30.300786972766225 7.551756521560872
  endloop
endfacet
facet normal 0.7501110696304336 0.6613118653236811 2.5717324295720293e-13
  outer loop
    vertex 189.32399316091278 35.62657556714213 7.551756521560534
    vertex 194.01930740471116 30.300786972766616 4.827598419909466
    vertex 189.32399316091318 35.626575567142524 4.827598419909128
  endloop
endfacet
facet normal -0.7501110696304815 0.6613118653236272 5.907252473921055e-13
  outer loop
    vertex 130.43601132261963 56.77570359354987 7.551756521568568
    vertex 124.9471228404324 50.54978171561849 4.813204333718644
    vertex 124.94712284043362 50.54978171561699 7.551756521568877
  endloop
endfacet
facet normal -0.7501110696304815 0.6613118653236272 5.907252473921055e-13
  outer loop
    vertex 124.9471228404324 50.54978171561849 4.813204333718644
    vertex 130.43601132261963 56.77570359354987 7.551756521568568
    vertex 130.4360113226184 56.775703593551185 4.813204333718335
  endloop
endfacet
facet normal 0.6613118653236547 0.750111069630457 1.8604575562967235e-13
  outer loop
    vertex 125.79397660140498 50.60306123820257 4.813204333718742
    vertex 129.6570486344324 47.19730511024688 7.55175652156306
    vertex 129.6570486344312 47.19730511024838 4.813204333712828
  endloop
endfacet
facet normal 0.6613118653236547 0.750111069630457 1.8604575562967235e-13
  outer loop
    vertex 129.6570486344324 47.19730511024688 7.55175652156306
    vertex 125.79397660140498 50.60306123820257 4.813204333718742
    vertex 125.7939766014062 50.60306123820108 7.551756521568976
  endloop
endfacet
facet normal -0.6613118653236446 -0.7501110696304661 -1.860457556296805e-13
  outer loop
    vertex 134.3523628538007 52.52309372616064 7.5517565215671105
    vertex 130.4892908452026 55.92884983257872 4.813204333718207
    vertex 134.3523628537995 52.523093726161946 4.813204333716877
  endloop
endfacet
facet normal -0.6613118653236446 -0.7501110696304661 -1.860457556296805e-13
  outer loop
    vertex 130.4892908452026 55.92884983257872 4.813204333718207
    vertex 134.3523628538007 52.52309372616064 7.5517565215671105
    vertex 130.4892908452038 55.92884983257741 7.55175652156844
  endloop
endfacet
facet normal 0.6613118653236371 0.7501110696304726 1.8604575562968636e-13
  outer loop
    vertex 130.4360113226184 56.775703593551185 4.813204333718335
    vertex 134.7491499729949 52.97316036793892 7.5517565215670865
    vertex 134.74914997299368 52.973160367940224 4.813204333716853
  endloop
endfacet
facet normal 0.6613118653236371 0.7501110696304726 1.8604575562968636e-13
  outer loop
    vertex 134.7491499729949 52.97316036793892 7.5517565215670865
    vertex 130.4360113226184 56.775703593551185 4.813204333718335
    vertex 130.43601132261963 56.77570359354987 7.551756521568568
  endloop
endfacet
facet normal 0.7501110696304869 -0.661311865323621 -5.90725247392104e-13
  outer loop
    vertex 125.79397660140498 50.60306123820257 4.813204333718742
    vertex 130.4892908452038 55.92884983257741 7.55175652156844
    vertex 125.7939766014062 50.60306123820108 7.551756521568976
  endloop
endfacet
facet normal 0.7501110696304869 -0.661311865323621 -5.90725247392104e-13
  outer loop
    vertex 130.4892908452038 55.92884983257741 7.55175652156844
    vertex 125.79397660140498 50.60306123820257 4.813204333718742
    vertex 130.4892908452026 55.92884983257872 4.813204333718207
  endloop
endfacet
facet normal 0.7501110696304962 -0.6613118653236104 -5.907252473921014e-13
  outer loop
    vertex 129.260261515237 46.747238468470066 4.813204333714271
    vertex 129.6570486344324 47.19730511024688 7.55175652156306
    vertex 129.26026151523823 46.74723846846857 7.551756521564505
  endloop
endfacet
facet normal 0.7501110696304962 -0.6613118653236104 -5.907252473921014e-13
  outer loop
    vertex 129.6570486344324 47.19730511024688 7.55175652156306
    vertex 129.260261515237 46.747238468470066 4.813204333714271
    vertex 129.6570486344312 47.19730511024838 4.813204333712828
  endloop
endfacet
facet normal 0.7501110696304716 -0.6613118653236384 -5.907252473921083e-13
  outer loop
    vertex 134.3523628537995 52.523093726161946 4.813204333716877
    vertex 134.7491499729949 52.97316036793892 7.5517565215670865
    vertex 134.3523628538007 52.52309372616064 7.5517565215671105
  endloop
endfacet
facet normal 0.7501110696304716 -0.6613118653236384 -5.907252473921083e-13
  outer loop
    vertex 134.7491499729949 52.97316036793892 7.5517565215670865
    vertex 134.3523628537995 52.523093726161946 4.813204333716877
    vertex 134.74914997299368 52.973160367940224 4.813204333716853
  endloop
endfacet
facet normal -0.6613118653236467 -0.750111069630464 -1.8604575562967866e-13
  outer loop
    vertex 129.26026151523823 46.74723846846857 7.551756521564505
    vertex 124.9471228404324 50.54978171561849 4.813204333718644
    vertex 129.260261515237 46.747238468470066 4.813204333714271
  endloop
endfacet
facet normal -0.6613118653236467 -0.750111069630464 -1.8604575562967866e-13
  outer loop
    vertex 124.9471228404324 50.54978171561849 4.813204333718644
    vertex 129.26026151523823 46.74723846846857 7.551756521564505
    vertex 124.94712284043362 50.54978171561699 7.551756521568877
  endloop
endfacet
facet normal -1.790745486819127e-12 -6.921193389250524e-12 1.0
  outer loop
    vertex 186.77084692188578 32.75018726712453 4.812151462715878
    vertex 181.62084692188532 39.85018726712454 4.812151462716831
    vertex 181.62084692188532 32.7501872671245 4.812151462715872
  endloop
endfacet
facet normal -1.790745486819127e-12 -6.921193389250524e-12 1.0
  outer loop
    vertex 181.62084692188532 39.85018726712454 4.812151462716831
    vertex 186.77084692188578 32.75018726712453 4.812151462715878
    vertex 186.77084692188558 39.85018726712458 4.812151462716834
  endloop
endfacet
facet normal -1.790745486819127e-12 -6.921193389250524e-12 1.0
  outer loop
    vertex 194.01930740471116 30.300786972766616 4.827598419909466
    vertex 193.17647334239444 39.02299372184723 4.827598419910447
    vertex 189.32399316091318 35.626575567142524 4.827598419909128
  endloop
endfacet
facet normal -1.790745486819127e-12 -6.921193389250524e-12 1.0
  outer loop
    vertex 123.92084618291483 27.242942544524762 4.812151267904284
    vertex 193.96602788212695 29.453933211794173 4.827598419909337
    vertex 181.62084692188532 32.15018726712457 4.8121514627157875
  endloop
endfacet
facet normal -1.790745486819127e-12 -6.921193389250524e-12 1.0
  outer loop
    vertex 193.96602788212695 29.453933211794173 4.827598419909337
    vertex 123.92084618291483 27.242942544524762 4.812151267904284
    vertex 218.92084715260623 27.242942544524784 4.812151267904284
  endloop
endfacet
facet normal -1.790745486819127e-12 -6.921193389250524e-12 1.0
  outer loop
    vertex 193.96602788212695 29.453933211794173 4.827598419909337
    vertex 218.92084715260623 27.242942544524784 4.812151267904284
    vertex 198.16685228965085 33.157458112720285 4.827598419910777
  endloop
endfacet
facet normal -1.790745486819127e-12 -6.921193389250524e-12 1.0
  outer loop
    vertex 123.92084618291483 27.242942544524762 4.812151267904284
    vertex 218.9208472100506 58.655904683766956 4.812151268291819
    vertex 123.92084608059417 58.655904683766956 4.812151267951577
  endloop
endfacet
facet normal -1.790745486819127e-12 -6.921193389250524e-12 1.0
  outer loop
    vertex 218.9208472100506 58.655904683766956 4.812151268291819
    vertex 123.92084618291483 27.242942544524762 4.812151267904284
    vertex 181.62084692188532 40.45018726712455 4.812151462716913
  endloop
endfacet
facet normal -1.790745486819127e-12 -6.921193389250524e-12 1.0
  outer loop
    vertex 181.62084692188532 40.45018726712455 4.812151462716913
    vertex 123.92084618291483 27.242942544524762 4.812151267904284
    vertex 181.62084692188532 32.15018726712457 4.8121514627157875
  endloop
endfacet
facet normal -1.790745486819127e-12 -6.921193389250524e-12 1.0
  outer loop
    vertex 181.62084692188532 40.45018726712455 4.812151462716913
    vertex 181.62084692188532 32.15018726712457 4.8121514627157875
    vertex 181.62084692188532 32.7501872671245 4.812151462715872
  endloop
endfacet
facet normal -1.790745486819127e-12 -6.921193389250524e-12 1.0
  outer loop
    vertex 181.62084692188532 40.45018726712455 4.812151462716913
    vertex 181.62084692188532 32.7501872671245 4.812151462715872
    vertex 181.62084692188532 39.85018726712454 4.812151462716831
  endloop
endfacet
facet normal -1.790745486819127e-12 -6.921193389250524e-12 1.0
  outer loop
    vertex 218.9208472100506 58.655904683766956 4.812151268291819
    vertex 181.62084692188532 40.45018726712455 4.812151462716913
    vertex 187.37084692188554 40.45018726712459 4.812151462716913
  endloop
endfacet
facet normal -1.790745486819127e-12 -6.921193389250524e-12 1.0
  outer loop
    vertex 218.9208472100506 58.655904683766956 4.812151268291819
    vertex 187.37084692188554 40.45018726712459 4.812151462716913
    vertex 192.78761264520563 39.48004844463638 4.827598419910422
  endloop
endfacet
facet normal -1.790745486819127e-12 -6.921193389250524e-12 1.0
  outer loop
    vertex 218.9208472100506 58.655904683766956 4.812151268291819
    vertex 192.78761264520563 39.48004844463638 4.827598419910422
    vertex 193.17647334239444 39.02299372184723 4.827598419910447
  endloop
endfacet
facet normal -1.790745486819127e-12 -6.921193389250524e-12 1.0
  outer loop
    vertex 218.9208472100506 58.655904683766956 4.812151268291819
    vertex 193.17647334239444 39.02299372184723 4.827598419910447
    vertex 194.01930740471116 30.300786972766616 4.827598419909466
  endloop
endfacet
facet normal -1.790745486819127e-12 -6.921193389250524e-12 1.0
  outer loop
    vertex 218.9208472100506 58.655904683766956 4.812151268291819
    vertex 194.01930740471116 30.300786972766616 4.827598419909466
    vertex 197.777991592462 33.61451283550938 4.827598419910752
  endloop
endfacet
facet normal -1.790745486819127e-12 -6.921193389250524e-12 1.0
  outer loop
    vertex 218.9208472100506 58.655904683766956 4.812151268291819
    vertex 197.777991592462 33.61451283550938 4.827598419910752
    vertex 198.16685228965085 33.157458112720285 4.827598419910777
  endloop
endfacet
facet normal -1.790745486819127e-12 -6.921193389250524e-12 1.0
  outer loop
    vertex 218.9208472100506 58.655904683766956 4.812151268291819
    vertex 198.16685228965085 33.157458112720285 4.827598419910777
    vertex 218.92084715260623 27.242942544524784 4.812151267904284
  endloop
endfacet
facet normal -5.2021955880580455e-11 -1.0 -8.406355996179708e-09
  outer loop
    vertex 218.92084715260623 27.242942544524784 4.812151267904284
    vertex 123.92084618066903 27.242942550646763 4.312151267904284
    vertex 218.92084715036046 27.242942550646784 4.312151267904284
  endloop
endfacet
facet normal -5.2021955880580455e-11 -1.0 -8.406355996179708e-09
  outer loop
    vertex 123.92084618066903 27.242942550646763 4.312151267904284
    vertex 218.92084715260623 27.242942544524784 4.812151267904284
    vertex 123.92084618291483 27.242942544524762 4.812151267904284
  endloop
endfacet
facet normal -1.6331688958653842e-19 0.9999999999999991 4.560024995437418e-08
  outer loop
    vertex 123.92084608059417 58.655904683766956 4.812151267951577
    vertex 218.92084720522124 58.655904706084904 4.32272526829182
    vertex 123.92084607576481 58.655904706084904 4.322725267951578
  endloop
endfacet
facet normal -1.6331688958653842e-19 0.9999999999999991 4.560024995437418e-08
  outer loop
    vertex 218.92084720522124 58.655904706084904 4.32272526829182
    vertex 123.92084608059417 58.655904683766956 4.812151267951577
    vertex 218.9208472100506 58.655904683766956 4.812151268291819
  endloop
endfacet
facet normal 1.379700965824627e-13 -1.150388836257249e-13 1.0
  outer loop
    vertex 153.51770068285902 35.62657556714154 7.5517565215605424
    vertex 150.05141579345627 39.4823983153366 7.551756521561841
    vertex 149.65462867426209 39.03233167355831 7.551756521561863
  endloop
endfacet
facet normal 1.379700965824627e-13 -1.150388836257249e-13 1.0
  outer loop
    vertex 150.05141579345627 39.4823983153366 7.551756521561841
    vertex 153.51770068285902 35.62657556714154 7.5517565215605424
    vertex 155.47084692188548 40.45018726712388 7.551756521560794
  endloop
endfacet
facet normal 1.379700965824627e-13 -1.150388836257249e-13 1.0
  outer loop
    vertex 148.8756659616454 29.4539332117926 7.551756521560751
    vertex 144.95931443046373 33.70654307918245 7.551756521562202
    vertex 144.56252731126955 33.25647643740417 7.551756521562232
  endloop
endfacet
facet normal 1.379700965824627e-13 -1.150388836257249e-13 1.0
  outer loop
    vertex 144.95931443046373 33.70654307918245 7.551756521562202
    vertex 148.8756659616454 29.4539332117926 7.551756521560751
    vertex 148.82238643906118 30.300786972765064 7.551756521560876
  endloop
endfacet
facet normal 1.379700965824627e-13 -1.150388836257249e-13 1.0
  outer loop
    vertex 148.82238643906118 30.300786972765064 7.551756521560876
    vertex 148.8756659616454 29.4539332117926 7.551756521560751
    vertex 153.51770068285902 35.62657556714154 7.5517565215605424
  endloop
endfacet
facet normal 1.379700965824627e-13 -1.150388836257249e-13 1.0
  outer loop
    vertex 153.51770068285902 35.62657556714154 7.5517565215605424
    vertex 148.8756659616454 29.4539332117926 7.551756521560751
    vertex 156.07084692188562 32.75018726712401 7.551756521559757
  endloop
endfacet
facet normal 1.379700965824627e-13 -1.150388836257249e-13 1.0
  outer loop
    vertex 156.07084692188562 32.75018726712401 7.551756521559757
    vertex 148.8756659616454 29.4539332117926 7.551756521560751
    vertex 161.22084692188537 32.1501872671241 7.551756521559587
  endloop
endfacet
facet normal 1.379700965824627e-13 -1.150388836257249e-13 1.0
  outer loop
    vertex 153.51770068285902 35.62657556714154 7.5517565215605424
    vertex 156.07084692188562 32.75018726712401 7.551756521559757
    vertex 155.47084692188548 40.45018726712388 7.551756521560794
  endloop
endfacet
facet normal 1.379700965824627e-13 -1.150388836257249e-13 1.0
  outer loop
    vertex 155.47084692188548 40.45018726712388 7.551756521560794
    vertex 156.07084692188562 32.75018726712401 7.551756521559757
    vertex 156.07084692188545 39.850187267123886 7.551756521560712
  endloop
endfacet
facet normal 1.379700965824627e-13 -1.150388836257249e-13 1.0
  outer loop
    vertex 156.07084692188562 32.75018726712401 7.551756521559757
    vertex 161.22084692188537 32.1501872671241 7.551756521559587
    vertex 161.22084692188537 32.75018726712403 7.551756521559698
  endloop
endfacet
facet normal 1.379700965824627e-13 -1.150388836257249e-13 1.0
  outer loop
    vertex 156.07084692188545 39.850187267123886 7.551756521560712
    vertex 161.22084692188537 40.45018726712404 7.551756521560789
    vertex 155.47084692188548 40.45018726712388 7.551756521560794
  endloop
endfacet
facet normal 1.379700965824627e-13 -1.150388836257249e-13 1.0
  outer loop
    vertex 161.22084692188537 40.45018726712404 7.551756521560789
    vertex 156.07084692188545 39.850187267123886 7.551756521560712
    vertex 161.22084692188537 39.85018726712393 7.551756521560705
  endloop
endfacet
facet normal 3.266770166964157e-13 -5.327971533452978e-13 1.0
  outer loop
    vertex 129.26026151523823 46.74723846846857 7.551756521564505
    vertex 125.7939766014062 50.60306123820108 7.551756521568976
    vertex 124.94712284043362 50.54978171561699 7.551756521568877
  endloop
endfacet
facet normal 3.266770166964157e-13 -5.327971533452978e-13 1.0
  outer loop
    vertex 125.7939766014062 50.60306123820108 7.551756521568976
    vertex 129.26026151523823 46.74723846846857 7.551756521564505
    vertex 129.6570486344324 47.19730511024688 7.55175652156306
  endloop
endfacet
facet normal 3.266770166964157e-13 -5.327971533452978e-13 1.0
  outer loop
    vertex 125.7939766014062 50.60306123820108 7.551756521568976
    vertex 130.43601132261963 56.77570359354987 7.551756521568568
    vertex 124.94712284043362 50.54978171561699 7.551756521568877
  endloop
endfacet
facet normal 3.266770166964157e-13 -5.327971533452978e-13 1.0
  outer loop
    vertex 130.43601132261963 56.77570359354987 7.551756521568568
    vertex 125.7939766014062 50.60306123820108 7.551756521568976
    vertex 130.4892908452038 55.92884983257741 7.55175652156844
  endloop
endfacet
facet normal 3.266770166964157e-13 -5.327971533452978e-13 1.0
  outer loop
    vertex 130.43601132261963 56.77570359354987 7.551756521568568
    vertex 130.4892908452038 55.92884983257741 7.55175652156844
    vertex 134.7491499729949 52.97316036793892 7.5517565215670865
  endloop
endfacet
facet normal 3.266770166964157e-13 -5.327971533452978e-13 1.0
  outer loop
    vertex 134.7491499729949 52.97316036793892 7.5517565215670865
    vertex 130.4892908452038 55.92884983257741 7.55175652156844
    vertex 134.3523628538007 52.52309372616064 7.5517565215671105
  endloop
endfacet
facet normal -1.3400490047139385e-13 -1.1146413222091299e-13 1.0
  outer loop
    vertex 186.77084692188558 39.85018726712418 7.551756521560712
    vertex 181.62084692188532 40.45018726712414 7.55175652156079
    vertex 181.62084692188532 39.850187267124134 7.5517565215607085
  endloop
endfacet
facet normal -1.3400490047139385e-13 -1.1146413222091299e-13 1.0
  outer loop
    vertex 181.62084692188532 40.45018726712414 7.55175652156079
    vertex 186.77084692188558 39.85018726712418 7.551756521560712
    vertex 187.37084692188554 40.450187267124186 7.55175652156079
  endloop
endfacet
facet normal -1.3400490047139385e-13 -1.1146413222091299e-13 1.0
  outer loop
    vertex 187.37084692188554 40.450187267124186 7.55175652156079
    vertex 186.77084692188558 39.85018726712418 7.551756521560712
    vertex 186.77084692188578 32.75018726712412 7.5517565215597555
  endloop
endfacet
facet normal -1.3400490047139385e-13 -1.1146413222091299e-13 1.0
  outer loop
    vertex 193.96602788212653 29.453933211793785 7.551756521560742
    vertex 181.62084692188532 32.7501872671241 7.551756521559748
    vertex 181.62084692188532 32.15018726712417 7.551756521559664
  endloop
endfacet
facet normal -1.3400490047139385e-13 -1.1146413222091299e-13 1.0
  outer loop
    vertex 181.62084692188532 32.7501872671241 7.551756521559748
    vertex 193.96602788212653 29.453933211793785 7.551756521560742
    vertex 186.77084692188578 32.75018726712412 7.5517565215597555
  endloop
endfacet
facet normal -1.3400490047139385e-13 -1.1146413222091299e-13 1.0
  outer loop
    vertex 186.77084692188578 32.75018726712412 7.5517565215597555
    vertex 193.96602788212653 29.453933211793785 7.551756521560742
    vertex 189.32399316091278 35.62657556714213 7.551756521560534
  endloop
endfacet
facet normal -1.3400490047139385e-13 -1.1146413222091299e-13 1.0
  outer loop
    vertex 186.77084692188578 32.75018726712412 7.5517565215597555
    vertex 189.32399316091278 35.62657556714213 7.551756521560534
    vertex 187.37084692188554 40.450187267124186 7.55175652156079
  endloop
endfacet
facet normal -1.3400490047139385e-13 -1.1146413222091299e-13 1.0
  outer loop
    vertex 189.32399316091278 35.62657556714213 7.551756521560534
    vertex 193.96602788212653 29.453933211793785 7.551756521560742
    vertex 194.01930740471076 30.300786972766225 7.551756521560872
  endloop
endfacet
facet normal -1.3400490047139385e-13 -1.1146413222091299e-13 1.0
  outer loop
    vertex 194.01930740471076 30.300786972766225 7.551756521560872
    vertex 193.96602788212653 29.453933211793785 7.551756521560742
    vertex 198.16685228965042 33.157458112719894 7.551756521562185
  endloop
endfacet
facet normal -1.3400490047139385e-13 -1.1146413222091299e-13 1.0
  outer loop
    vertex 194.01930740471076 30.300786972766225 7.551756521560872
    vertex 198.16685228965042 33.157458112719894 7.551756521562185
    vertex 197.7779915924616 33.61451283550899 7.55175652156216
  endloop
endfacet
facet normal -1.3400490047139385e-13 -1.1146413222091299e-13 1.0
  outer loop
    vertex 189.32399316091278 35.62657556714213 7.551756521560534
    vertex 192.78761264520523 39.480048444636 7.551756521561829
    vertex 187.37084692188554 40.450187267124186 7.55175652156079
  endloop
endfacet
facet normal -1.3400490047139385e-13 -1.1146413222091299e-13 1.0
  outer loop
    vertex 192.78761264520523 39.480048444636 7.551756521561829
    vertex 189.32399316091278 35.62657556714213 7.551756521560534
    vertex 193.17647334239405 39.02299372184684 7.551756521561855
  endloop
endfacet
facet normal 1.0 -1.7863625665277858e-09 -7.122030779082378e-09
  outer loop
    vertex 218.92084715036046 27.242942550646784 4.312151267904284
    vertex 218.9208472100506 58.655904683766956 4.812151268291819
    vertex 218.92084715260623 27.242942544524784 4.812151267904284
  endloop
endfacet
facet normal 1.0 -1.7863625665277858e-09 -7.122030779082378e-09
  outer loop
    vertex 218.9208472100506 58.655904683766956 4.812151268291819
    vertex 218.92084715036046 27.242942550646784 4.312151267904284
    vertex 218.92084720522124 58.655904706084904 4.32272526829182
  endloop
endfacet
facet normal 8.761060916653622e-15 -1.0 -1.3943960156924632e-13
  outer loop
    vertex 161.22084692188537 39.85018726712393 7.551756521560705
    vertex 156.07084692188545 39.85018726712426 4.812151574778963
    vertex 161.22084692188537 39.850187267124305 4.812151574778957
  endloop
endfacet
facet normal 8.761060916653622e-15 -1.0 -1.3943960156924632e-13
  outer loop
    vertex 156.07084692188545 39.85018726712426 4.812151574778963
    vertex 161.22084692188537 39.85018726712393 7.551756521560705
    vertex 156.07084692188545 39.850187267123886 7.551756521560712
  endloop
endfacet
facet normal 1.0 1.300021549479365e-27 -7.002623222336146e-15
  outer loop
    vertex 161.22084692188537 32.15018726712448 4.812151574777839
    vertex 161.22084692188537 32.75018726712403 7.551756521559698
    vertex 161.22084692188537 32.1501872671241 7.551756521559587
  endloop
endfacet
facet normal 1.0 1.300021549479365e-27 -7.002623222336146e-15
  outer loop
    vertex 161.22084692188537 32.75018726712403 7.551756521559698
    vertex 161.22084692188537 32.15018726712448 4.812151574777839
    vertex 161.22084692188537 32.75018726712441 4.81215157477795
  endloop
endfacet
facet normal -4.380530458325456e-15 1.0 1.3943960156924627e-13
  outer loop
    vertex 156.07084692188562 32.75018726712439 4.812151574778009
    vertex 161.22084692188537 32.75018726712403 7.551756521559698
    vertex 161.22084692188537 32.75018726712441 4.81215157477795
  endloop
endfacet
facet normal -4.380530458325456e-15 1.0 1.3943960156924627e-13
  outer loop
    vertex 161.22084692188537 32.75018726712403 7.551756521559698
    vertex 156.07084692188562 32.75018726712439 4.812151574778009
    vertex 156.07084692188562 32.75018726712401 7.551756521559757
  endloop
endfacet
facet normal -2.942573720919604e-14 1.0 1.3943960156924645e-13
  outer loop
    vertex 155.47084692188548 40.45018726712426 4.812151574779046
    vertex 161.22084692188537 40.45018726712404 7.551756521560789
    vertex 161.22084692188537 40.45018726712442 4.812151574779041
  endloop
endfacet
facet normal -2.942573720919604e-14 1.0 1.3943960156924645e-13
  outer loop
    vertex 161.22084692188537 40.45018726712404 7.551756521560789
    vertex 155.47084692188548 40.45018726712426 4.812151574779046
    vertex 155.47084692188548 40.45018726712388 7.551756521560794
  endloop
endfacet
facet normal 1.0 9.87358138844781e-28 -7.002623222336145e-15
  outer loop
    vertex 161.22084692188537 39.850187267124305 4.812151574778957
    vertex 161.22084692188537 40.45018726712404 7.551756521560789
    vertex 161.22084692188537 39.85018726712393 7.551756521560705
  endloop
endfacet
facet normal 1.0 9.87358138844781e-28 -7.002623222336145e-15
  outer loop
    vertex 161.22084692188537 40.45018726712404 7.551756521560789
    vertex 161.22084692188537 39.850187267124305 4.812151574778957
    vertex 161.22084692188537 40.45018726712442 4.812151574779041
  endloop
endfacet
facet normal 1.0 2.5419416180714836e-14 -7.002623222332601e-15
  outer loop
    vertex 156.07084692188562 32.75018726712439 4.812151574778009
    vertex 156.07084692188545 39.850187267123886 7.551756521560712
    vertex 156.07084692188562 32.75018726712401 7.551756521559757
  endloop
endfacet
facet normal 1.0 2.5419416180714836e-14 -7.002623222332601e-15
  outer loop
    vertex 156.07084692188545 39.850187267123886 7.551756521560712
    vertex 156.07084692188562 32.75018726712439 4.812151574778009
    vertex 156.07084692188545 39.85018726712426 4.812151574778963
  endloop
endfacet
facet normal 2.336011263503731e-05 0.00025100802047936673 -0.9999999682246389
  outer loop
    vertex 218.92084720522124 58.655904706084904 4.32272526829182
    vertex 123.92084618066903 27.242942550646763 4.312151267904284
    vertex 123.92084607576481 58.655904706084904 4.322725267951578
  endloop
endfacet
facet normal 2.336011263503731e-05 0.00025100802047936673 -0.9999999682246389
  outer loop
    vertex 123.92084618066903 27.242942550646763 4.312151267904284
    vertex 218.92084720522124 58.655904706084904 4.32272526829182
    vertex 218.92084715036046 27.242942550646784 4.312151267904284
  endloop
endfacet
facet normal -1.0 -3.2572752354855634e-09 4.491590359592141e-09
  outer loop
    vertex 123.92084608059417 58.655904683766956 4.812151267951577
    vertex 123.92084618066903 27.242942550646763 4.312151267904284
    vertex 123.92084618291483 27.242942544524762 4.812151267904284
  endloop
endfacet
facet normal -1.0 -3.2572752354855634e-09 4.491590359592141e-09
  outer loop
    vertex 123.92084618066903 27.242942550646763 4.312151267904284
    vertex 123.92084608059417 58.655904683766956 4.812151267951577
    vertex 123.92084607576481 58.655904706084904 4.322725267951578
  endloop
endfacet
facet normal 0.7616397613146821 0.6480006743704161 2.579678628203299e-13
  outer loop
    vertex 193.17647334239444 39.02299372184723 4.827598419910447
    vertex 192.78761264520523 39.480048444636 7.551756521561829
    vertex 193.17647334239405 39.02299372184684 7.551756521561855
  endloop
endfacet
facet normal 0.7616397613146821 0.6480006743704161 2.579678628203299e-13
  outer loop
    vertex 192.78761264520523 39.480048444636 7.551756521561829
    vertex 193.17647334239444 39.02299372184723 4.827598419910447
    vertex 192.78761264520563 39.48004844463638 4.827598419910422
  endloop
endfacet
facet normal 0.6613118653236486 -0.7501110696304626 4.739040236460786e-14
  outer loop
    vertex 198.16685228965085 33.157458112720285 4.827598419910777
    vertex 193.96602788212653 29.453933211793785 7.551756521560742
    vertex 193.96602788212695 29.453933211794173 4.827598419909337
  endloop
endfacet
facet normal 0.6613118653236486 -0.7501110696304626 4.739040236460786e-14
  outer loop
    vertex 193.96602788212653 29.453933211793785 7.551756521560742
    vertex 198.16685228965085 33.157458112720285 4.827598419910777
    vertex 198.16685228965042 33.157458112719894 7.551756521562185
  endloop
endfacet
facet normal -2.2432883813316094e-13 -1.3479230700684943e-13 1.0
  outer loop
    vertex 213.58143235296288 46.747238490007156 7.5517565215674685
    vertex 217.04771724236556 50.603061238202336 7.551756521568767
    vertex 213.18464523376863 47.197305131785434 7.551756521567442
  endloop
endfacet
facet normal -2.2432883813316094e-13 -1.3479230700684943e-13 1.0
  outer loop
    vertex 217.04771724236556 50.603061238202336 7.551756521568767
    vertex 213.58143235296288 46.747238490007156 7.5517565215674685
    vertex 217.89457100333814 50.549781715618266 7.551756521568949
  endloop
endfacet
facet normal -2.2432883813316094e-13 -1.3479230700684943e-13 1.0
  outer loop
    vertex 208.48933098997085 52.523093726161655 7.551756521567106
    vertex 212.40568252115176 56.77570359355092 7.5517565215685565
    vertex 208.09254387077672 52.973160367939876 7.551756521567076
  endloop
endfacet
facet normal -2.2432883813316094e-13 -1.3479230700684943e-13 1.0
  outer loop
    vertex 212.40568252115176 56.77570359355092 7.5517565215685565
    vertex 208.48933098997085 52.523093726161655 7.551756521567106
    vertex 212.3524029985676 55.9288498325785 7.551756521568431
  endloop
endfacet
facet normal -2.2432883813316094e-13 -1.3479230700684943e-13 1.0
  outer loop
    vertex 212.40568252115176 56.77570359355092 7.5517565215685565
    vertex 212.3524029985676 55.9288498325785 7.551756521568431
    vertex 217.04771724236556 50.603061238202336 7.551756521568767
  endloop
endfacet
facet normal -2.2432883813316094e-13 -1.3479230700684943e-13 1.0
  outer loop
    vertex 212.40568252115176 56.77570359355092 7.5517565215685565
    vertex 217.04771724236556 50.603061238202336 7.551756521568767
    vertex 217.89457100333814 50.549781715618266 7.551756521568949
  endloop
endfacet
facet normal 0.7501110696304466 0.6613118653236667 2.5728035632239243e-13
  outer loop
    vertex 217.89457100333837 50.54978171561864 4.825176718348411
    vertex 212.40568252115176 56.77570359355092 7.5517565215685565
    vertex 217.89457100333814 50.549781715618266 7.551756521568949
  endloop
endfacet
facet normal 0.7501110696304466 0.6613118653236667 2.5728035632239243e-13
  outer loop
    vertex 212.40568252115176 56.77570359355092 7.5517565215685565
    vertex 217.89457100333837 50.54978171561864 4.825176718348411
    vertex 212.405682521152 56.775703593551206 4.825176718348018
  endloop
endfacet
facet normal 0.6613118653236519 -0.7501110696304595 4.725513579894036e-14
  outer loop
    vertex 217.89457100333837 50.54978171561864 4.825176718348411
    vertex 213.58143235296288 46.747238490007156 7.5517565215674685
    vertex 213.5814323529631 46.74723849000753 4.82517671834693
  endloop
endfacet
facet normal 0.6613118653236519 -0.7501110696304595 4.725513579894036e-14
  outer loop
    vertex 213.58143235296288 46.747238490007156 7.5517565215674685
    vertex 217.89457100333837 50.54978171561864 4.825176718348411
    vertex 217.89457100333814 50.549781715618266 7.551756521568949
  endloop
endfacet
facet normal -0.7501110696304302 -0.6613118653236854 -2.5728035632239127e-13
  outer loop
    vertex 213.18464523376863 47.197305131785434 7.551756521567442
    vertex 213.5814323529631 46.74723849000753 4.82517671834693
    vertex 213.58143235296288 46.747238490007156 7.5517565215674685
  endloop
endfacet
facet normal -0.7501110696304302 -0.6613118653236854 -2.5728035632239127e-13
  outer loop
    vertex 213.5814323529631 46.74723849000753 4.82517671834693
    vertex 213.18464523376863 47.197305131785434 7.551756521567442
    vertex 213.18464523376886 47.19730513178581 4.8251767183469045
  endloop
endfacet
facet normal -0.6613118653236587 0.7501110696304536 -4.725513579894268e-14
  outer loop
    vertex 213.18464523376863 47.197305131785434 7.551756521567442
    vertex 217.0477172423658 50.60306123820271 4.825176718348231
    vertex 213.18464523376886 47.19730513178581 4.8251767183469045
  endloop
endfacet
facet normal -0.6613118653236587 0.7501110696304536 -4.725513579894268e-14
  outer loop
    vertex 217.0477172423658 50.60306123820271 4.825176718348231
    vertex 213.18464523376863 47.197305131785434 7.551756521567442
    vertex 217.04771724236556 50.603061238202336 7.551756521568767
  endloop
endfacet
facet normal -0.7501110696304525 -0.6613118653236598 -2.5728035632239284e-13
  outer loop
    vertex 212.3524029985676 55.9288498325785 7.551756521568431
    vertex 217.0477172423658 50.60306123820271 4.825176718348231
    vertex 217.04771724236556 50.603061238202336 7.551756521568767
  endloop
endfacet
facet normal -0.7501110696304525 -0.6613118653236598 -2.5728035632239284e-13
  outer loop
    vertex 217.0477172423658 50.60306123820271 4.825176718348231
    vertex 212.3524029985676 55.9288498325785 7.551756521568431
    vertex 212.35240299856784 55.92884983257878 4.825176718347895
  endloop
endfacet
facet normal 0.6613118653236649 -0.750111069630448 4.7255135798944804e-14
  outer loop
    vertex 212.35240299856784 55.92884983257878 4.825176718347895
    vertex 208.48933098997085 52.523093726161655 7.551756521567106
    vertex 208.48933098997108 52.52309372616194 4.82517671834657
  endloop
endfacet
facet normal 0.6613118653236649 -0.750111069630448 4.7255135798944804e-14
  outer loop
    vertex 208.48933098997085 52.523093726161655 7.551756521567106
    vertex 212.35240299856784 55.92884983257878 4.825176718347895
    vertex 212.3524029985676 55.9288498325785 7.551756521568431
  endloop
endfacet
facet normal -0.7501110696304677 -0.6613118653236426 -2.5728035632239395e-13
  outer loop
    vertex 208.09254387077672 52.973160367939876 7.551756521567076
    vertex 208.48933098997108 52.52309372616194 4.82517671834657
    vertex 208.48933098997085 52.523093726161655 7.551756521567106
  endloop
endfacet
facet normal -0.7501110696304677 -0.6613118653236426 -2.5728035632239395e-13
  outer loop
    vertex 208.48933098997108 52.52309372616194 4.82517671834657
    vertex 208.09254387077672 52.973160367939876 7.551756521567076
    vertex 208.09254387077692 52.97316036794016 4.825176718346539
  endloop
endfacet
facet normal -0.6613118653236654 0.7501110696304477 -4.725513579894495e-14
  outer loop
    vertex 208.09254387077672 52.973160367939876 7.551756521567076
    vertex 212.405682521152 56.775703593551206 4.825176718348018
    vertex 208.09254387077692 52.97316036794016 4.825176718346539
  endloop
endfacet
facet normal -0.6613118653236654 0.7501110696304477 -4.725513579894495e-14
  outer loop
    vertex 212.405682521152 56.775703593551206 4.825176718348018
    vertex 208.09254387077672 52.973160367939876 7.551756521567076
    vertex 212.40568252115176 56.77570359355092 7.5517565215685565
  endloop
endfacet
facet normal 0.21337556766977608 -0.9769702488415914 -1.5466807310662034e-13
  outer loop
    vertex 161.22084692188537 32.15018726712448 4.812151574777839
    vertex 148.8756659616454 29.4539332117926 7.551756521560751
    vertex 148.87566596164487 29.45393321179297 4.805835300808462
  endloop
endfacet
facet normal 0.21337556766977608 -0.9769702488415914 -1.5466807310662034e-13
  outer loop
    vertex 148.8756659616454 29.4539332117926 7.551756521560751
    vertex 161.22084692188537 32.15018726712448 4.812151574777839
    vertex 161.22084692188537 32.1501872671241 7.551756521559587
  endloop
endfacet
facet normal -0.1757965168163603 0.9844265257881032 1.5196453146046057e-13
  outer loop
    vertex 150.05141579345627 39.4823983153366 7.551756521561841
    vertex 155.47084692188548 40.45018726712426 4.812151574779046
    vertex 150.05141579345573 39.48239831533697 4.805835300809553
  endloop
endfacet
facet normal -0.1757965168163603 0.9844265257881032 1.5196453146046057e-13
  outer loop
    vertex 155.47084692188548 40.45018726712426 4.812151574779046
    vertex 150.05141579345627 39.4823983153366 7.551756521561841
    vertex 155.47084692188548 40.45018726712388 7.551756521560794
  endloop
endfacet
facet normal 0.1762941398399492 0.9843375316719831 1.5634038928756665e-13
  outer loop
    vertex 187.37084692188554 40.450187267124186 7.55175652156079
    vertex 192.78761264520563 39.48004844463638 4.827598419910422
    vertex 187.37084692188554 40.45018726712459 4.812151462716913
  endloop
endfacet
facet normal 0.1762941398399492 0.9843375316719831 1.5634038928756665e-13
  outer loop
    vertex 192.78761264520563 39.48004844463638 4.827598419910422
    vertex 187.37084692188554 40.450187267124186 7.55175652156079
    vertex 192.78761264520523 39.480048444636 7.551756521561829
  endloop
endfacet
facet normal -0.2133755676696722 -0.976970248841614 -1.580298880204073e-13
  outer loop
    vertex 193.96602788212695 29.453933211794173 4.827598419909337
    vertex 181.62084692188532 32.15018726712417 7.551756521559664
    vertex 181.62084692188532 32.15018726712457 4.8121514627157875
  endloop
endfacet
facet normal -0.2133755676696722 -0.976970248841614 -1.580298880204073e-13
  outer loop
    vertex 181.62084692188532 32.15018726712417 7.551756521559664
    vertex 193.96602788212695 29.453933211794173 4.827598419909337
    vertex 193.96602788212653 29.453933211793785 7.551756521560742
  endloop
endfacet
endsolid wapolbot
